<?xml version="1.0" encoding="utf-8"?>
<!-- Generator: Adobe Illustrator 22.0.1, SVG Export Plug-In . SVG Version: 6.00 Build 0)  -->
<svg version="1.1" id="Layer_1" xmlns="http://www.w3.org/2000/svg" xmlns:xlink="http://www.w3.org/1999/xlink" x="0px" y="0px"
	 viewBox="0 0 93.7 119.9" style="enable-background:new 0 0 93.7 119.9;" xml:space="preserve">
<style type="text/css">
	.st0{fill:#002640;stroke:#002640;stroke-width:4;stroke-miterlimit:10;}
	.st1{fill:#4D4D4D;}
	.st2{fill:#F7931E;}
	.st3{fill:#002640;}
	.st4{fill:none;stroke:#F7931E;stroke-width:5;stroke-miterlimit:10;}
</style>
<g>
	<path class="st0" d="M45.1,62.9L59.3,116c0.5,2.1,3.3,2.4,4.3,0.5l9-15.7l15.7,9.1c1.8,1.1,4-0.6,3.5-2.6L77.5,54.2"/>
	<path class="st0" d="M16.5,54.2L2.2,107.3c-0.5,2.1,1.6,3.7,3.5,2.6l15.7-9.1l9,15.7c1.1,1.8,3.8,1.5,4.3-0.5l14.3-53.1"/>
	<g>
		<polygon class="st1" points="14.4,0.3 14.4,30.1 14.4,69 47.5,89.6 80.5,69 80.5,30.1 80.5,0.3 		"/>
		<polygon class="st2" points="17.4,4.4 17.4,31.4 17.4,66.8 47.5,85.4 77.5,66.8 77.5,31.4 77.5,4.4 		"/>
		<polygon class="st3" points="18.1,5 18.1,31.4 18.1,66.1 47.5,84.3 76.8,66.1 76.8,31.4 76.8,5 		"/>
	</g>
	<g>
		<polyline class="st4" points="30.2,40 40.5,50.3 64.9,25.9 		"/>
		<circle class="st2" cx="64.7" cy="26" r="2.5"/>
		<circle class="st2" cx="30.2" cy="40" r="2.5"/>
	</g>
</g>
</svg>
